<svg xmlns="http://www.w3.org/2000/svg" height="10rem" viewBox="0 -960 960 960" width="10rem" fill="none">
	<defs>
		<linearGradient id="paint_gradient_04435" x1="0" y1="0" x2="0" y2="1" gradientUnits="objectBoundingBox">
			<stop stop-color="#135AC0" />
			<stop offset="0.902174" stop-color="#135AC0" stop-opacity="0.1" />
		</linearGradient>
	</defs>
	<path fill="url(#paint_gradient_04435)" fill-opacity="0.3" d="M480-160q-48-38-104-59t-116-21q-42 0-82.5 11T100-198q-21 11-40.5-1T40-234v-482q0-11 5.5-21T62-752q46-24 96-36t102-12q58 0 113.5 15T480-740v484q51-32 107-48t113-16q36 0 70.5 6t69.5 18v-480q15 5 29.5 10.5T898-752q11 5 16.5 15t5.5 21v482q0 23-19.5 35t-40.5 1q-37-20-77.5-31T700-240q-60 0-116 21t-104 59Zm80-200v-380l200-200v400L560-360Z" />
</svg>
